<svg xmlns="http://www.w3.org/2000/svg" xmlns:xlink="http://www.w3.org/1999/xlink" width="1500" zoomAndPan="magnify" viewBox="0 0 1125 1124.99995" height="1500" preserveAspectRatio="xMidYMid meet" version="1.0"><defs><g/><clipPath id="60b76a0f16"><path d="M 182.726562 124.089844 L 942.476562 124.089844 L 942.476562 1000.839844 L 182.726562 1000.839844 Z M 182.726562 124.089844 " clip-rule="nonzero"/></clipPath></defs><rect x="-112.5" width="1350" fill="#ffffff" y="-112.499995" height="1349.99994" fill-opacity="1"/><rect x="-112.5" width="1350" fill="#ffffff" y="-112.499995" height="1349.99994" fill-opacity="1"/><g clip-path="url(#60b76a0f16)"><path fill="#022b54" d="M 562.570312 889.640625 C 387.25 788.429688 279.25 601.355469 279.25 398.917969 C 279.25 398.917969 360.644531 713.9375 659.976562 818.605469 C 630.460938 845.382812 597.886719 869.261719 562.570312 889.640625 Z M 562.570312 124.117188 C 398.4375 285.835938 182.921875 343.308594 182.921875 343.308594 C 182.921875 614.570312 327.644531 865.242188 562.570312 1000.871094 C 797.5 865.242188 942.222656 614.570312 942.222656 343.308594 C 942.222656 343.308594 726.707031 285.835938 562.570312 124.117188 " fill-opacity="1" fill-rule="nonzero"/></g><g fill="#ffffff" fill-opacity="1"><g transform="translate(399.380371, 767.880807)"><g><path d="M 303.5625 -340.75 L 141.421875 -340.75 L 141.421875 -246.875 L 287.71875 -246.875 L 287.71875 -163.359375 L 141.421875 -163.359375 L 141.421875 0 L 48.765625 0 L 48.765625 -426.703125 L 303.5625 -426.703125 Z M 303.5625 -340.75 "/></g></g></g></svg>